<svg width="149" height="22" viewBox="0 0 149 22" fill="none" xmlns="http://www.w3.org/2000/svg">
<path d="M31.7511 0V0.586878C31.3514 0.618601 31.0147 0.729632 30.7412 0.919971C30.4676 1.11031 30.2256 1.40111 30.0152 1.79236C29.9521 1.91925 29.6207 2.73877 29.021 4.2509L22.3142 22H21.6987L16.3963 8.13699L10.5574 22H9.97352L2.93524 4.44124C2.21984 2.67532 1.72012 1.60731 1.43606 1.2372C1.152 0.867099 0.673318 0.650324 0 0.586878V0H9.27916V0.586878C8.5322 0.608027 8.03247 0.724345 7.77997 0.935833C7.538 1.13675 7.41701 1.39053 7.41701 1.69719C7.41701 2.09901 7.67477 2.95025 8.19028 4.2509L12.388 14.6878L15.7493 6.53497L14.8656 4.2509C14.3816 3.00312 14.0082 2.17304 13.7451 1.76063C13.4821 1.33766 13.177 1.03629 12.8299 0.856525C12.4932 0.67676 11.9935 0.586878 11.3307 0.586878V0H21.6987V0.586878C20.9728 0.597453 20.452 0.655612 20.1364 0.761355C19.9155 0.835376 19.7419 0.962269 19.6156 1.14203C19.4894 1.31122 19.4263 1.50685 19.4263 1.72891C19.4263 1.97212 19.663 2.71762 20.1364 3.96539L24.0343 14.1485L27.5219 4.93295C27.8901 3.98125 28.1163 3.33093 28.2004 2.98198C28.2846 2.63302 28.3267 2.3105 28.3267 2.01442C28.3267 1.58087 28.1794 1.24249 27.8848 0.999279C27.5902 0.745494 27.0274 0.608027 26.1963 0.586878V0H31.7511Z" fill="white"/>
<path d="M38.2844 6.2336C39.5679 6.2336 40.762 6.56669 41.8667 7.23288C42.9713 7.89906 43.8077 8.84547 44.3758 10.0721C44.9545 11.2987 45.2438 12.6417 45.2438 14.1009C45.2438 16.2052 44.7125 17.9659 43.6499 19.3828C42.3664 21.0959 40.5937 21.9524 38.3318 21.9524C36.1119 21.9524 34.4023 21.1699 33.203 19.6049C32.0036 18.0399 31.404 16.2264 31.404 14.1644C31.404 12.0389 32.0141 10.1884 33.2345 8.61283C34.4654 7.02668 36.1487 6.2336 38.2844 6.2336ZM38.3475 7.35977C37.811 7.35977 37.3481 7.56597 36.9588 7.97837C36.5801 8.3802 36.3276 9.18385 36.2013 10.3893C36.0856 11.5842 36.0278 13.2497 36.0278 15.3857C36.0278 16.5172 36.1014 17.5746 36.2487 18.558C36.3644 19.3088 36.6116 19.8798 36.9904 20.2711C37.3691 20.6623 37.8005 20.858 38.2844 20.858C38.7578 20.858 39.1524 20.7258 39.468 20.4614C39.8783 20.1019 40.1518 19.5996 40.2886 18.9546C40.499 17.95 40.6042 15.9197 40.6042 12.8637C40.6042 11.0661 40.5043 9.83417 40.3044 9.16799C40.1045 8.49123 39.8099 7.99952 39.4206 7.69286C39.1471 7.4708 38.7894 7.35977 38.3475 7.35977Z" fill="white"/>
<path d="M53.6077 6.67772V10.0404C54.5861 8.50709 55.4435 7.49195 56.1799 6.99495C56.9164 6.48738 57.6265 6.2336 58.3104 6.2336C58.8995 6.2336 59.3677 6.41865 59.7149 6.78875C60.0726 7.14828 60.2514 7.66114 60.2514 8.32732C60.2514 9.03581 60.0778 9.58568 59.7306 9.97693C59.394 10.3682 58.9837 10.5638 58.4997 10.5638C57.9421 10.5638 57.4582 10.384 57.0479 10.0245C56.6376 9.66498 56.3956 9.46407 56.322 9.42177C56.2168 9.35833 56.0958 9.3266 55.959 9.3266C55.6539 9.3266 55.3646 9.44292 55.0911 9.67556C54.6597 10.0351 54.3336 10.5479 54.1126 11.2141C53.776 12.2398 53.6077 13.3713 53.6077 14.6085V18.0187L53.6234 18.907C53.6234 19.5097 53.6603 19.8957 53.7339 20.0649C53.8601 20.3504 54.0443 20.5619 54.2862 20.6994C54.5387 20.8262 54.9596 20.9056 55.5487 20.9373V21.5083H47.5794V20.9373C48.2211 20.8844 48.6525 20.7099 48.8734 20.4138C49.1048 20.1072 49.2206 19.3088 49.2206 18.0187V9.81831C49.2206 8.97236 49.1785 8.43307 49.0943 8.20043C48.9891 7.90435 48.8366 7.68758 48.6367 7.55011C48.4368 7.41264 48.0843 7.31747 47.5794 7.2646V6.67772H53.6077Z" fill="white"/>
<path d="M67.6211 0V18.4311C67.6211 19.478 67.7421 20.1495 67.984 20.4456C68.226 20.7311 68.6994 20.895 69.4043 20.9373V21.5083H61.435V20.9373C62.0872 20.9161 62.5712 20.7258 62.8868 20.3663C63.0972 20.123 63.2024 19.478 63.2024 18.4311V3.07714C63.2024 2.04086 63.0814 1.37996 62.8395 1.09445C62.5975 0.798366 62.1293 0.629176 61.435 0.586878V0H67.6211Z" fill="white"/>
<path d="M85.1852 0V17.0671C85.1852 18.2197 85.2168 18.9017 85.2799 19.1132C85.364 19.4621 85.5219 19.7212 85.7533 19.8904C85.9953 20.0596 86.4109 20.1653 87 20.2076V20.7311L80.7665 21.9524V19.6049C80.0196 20.5143 79.3515 21.1329 78.7624 21.4607C78.1837 21.7885 77.5262 21.9524 76.7898 21.9524C74.9066 21.9524 73.4179 21.1065 72.3238 19.4146C71.44 18.0399 70.9982 16.3533 70.9982 14.3547C70.9982 12.758 71.2717 11.3304 71.8188 10.0721C72.3659 8.80317 73.1128 7.84619 74.0597 7.20115C75.0171 6.55612 76.0428 6.2336 77.1369 6.2336C77.8418 6.2336 78.4678 6.37106 79.0149 6.646C79.5619 6.92093 80.1458 7.40207 80.7665 8.0894V3.61644C80.7665 2.48498 80.7192 1.80293 80.6245 1.5703C80.4983 1.26364 80.3089 1.03629 80.0564 0.888248C79.8039 0.740207 79.3305 0.666186 78.6361 0.666186V0H85.1852ZM80.7665 10.0562C79.988 8.55467 79.0359 7.80389 77.9102 7.80389C77.521 7.80389 77.2001 7.90964 76.9476 8.12113C76.5583 8.44893 76.2374 9.02523 75.9849 9.85004C75.743 10.6748 75.622 11.9385 75.622 13.641C75.622 15.5126 75.7588 16.8979 76.0323 17.7967C76.3058 18.6955 76.6793 19.3458 77.1527 19.7477C77.3947 19.9486 77.7261 20.049 78.1469 20.049C79.0727 20.049 79.9459 19.3194 80.7665 17.8601V10.0562Z" fill="white"/>
<rect width="53.7143" height="16" transform="translate(95 6)" fill="#FF0000"/>
<path d="M103.717 12.3287L103.742 12.8979C104.088 12.4626 104.54 12.245 105.098 12.245C106.055 12.245 106.538 12.7849 106.546 13.8647V16.8572H105.772V13.8605C105.769 13.5341 105.694 13.2927 105.546 13.1365C105.401 12.9802 105.173 12.9021 104.864 12.9021C104.612 12.9021 104.392 12.9691 104.202 13.103C104.013 13.2369 103.865 13.4127 103.759 13.6303V16.8572H102.984V12.3287H103.717ZM109.593 16.9409C108.979 16.9409 108.48 16.74 108.095 16.3382C107.71 15.9336 107.517 15.3937 107.517 14.7185V14.5762C107.517 14.127 107.602 13.7266 107.772 13.375C107.945 13.0207 108.185 12.7445 108.492 12.5464C108.802 12.3455 109.137 12.245 109.497 12.245C110.085 12.245 110.543 12.4389 110.869 12.8268C111.196 13.2146 111.359 13.7698 111.359 14.4925V14.8148H108.291C108.302 15.2612 108.432 15.6225 108.681 15.8988C108.932 16.1722 109.25 16.3089 109.635 16.3089C109.908 16.3089 110.14 16.2531 110.33 16.1415C110.519 16.0299 110.685 15.882 110.828 15.6979L111.301 16.0662C110.921 16.6493 110.352 16.9409 109.593 16.9409ZM109.497 12.8812C109.184 12.8812 108.922 12.9956 108.71 13.2244C108.498 13.4504 108.367 13.7684 108.316 14.1786H110.585V14.12C110.563 13.7266 110.457 13.4225 110.267 13.2076C110.077 12.99 109.82 12.8812 109.497 12.8812ZM116.268 15.7899L117.139 12.3287H117.913L116.595 16.8572H115.967L114.866 13.4253L113.795 16.8572H113.167L111.853 12.3287H112.623L113.515 15.7188L114.569 12.3287H115.193L116.268 15.7899ZM121.341 15.656C121.341 15.4467 121.261 15.2849 121.102 15.1705C120.946 15.0533 120.671 14.9529 120.278 14.8692C119.887 14.7855 119.576 14.685 119.345 14.5678C119.116 14.4506 118.946 14.3111 118.834 14.1493C118.725 13.9875 118.671 13.795 118.671 13.5717C118.671 13.2006 118.827 12.8868 119.14 12.6301C119.455 12.3734 119.857 12.245 120.345 12.245C120.858 12.245 121.274 12.3775 121.592 12.6426C121.913 12.9077 122.073 13.2467 122.073 13.6596H121.295C121.295 13.4476 121.204 13.2648 121.023 13.1114C120.844 12.9579 120.618 12.8812 120.345 12.8812C120.063 12.8812 119.843 12.9426 119.684 13.0653C119.525 13.1881 119.445 13.3485 119.445 13.5466C119.445 13.7336 119.519 13.8745 119.667 13.9693C119.815 14.0642 120.081 14.1549 120.466 14.2414C120.854 14.3279 121.168 14.4311 121.408 14.5511C121.648 14.6711 121.825 14.8162 121.939 14.9864C122.057 15.1538 122.115 15.3589 122.115 15.6016C122.115 16.0062 121.953 16.3312 121.63 16.5768C121.306 16.8195 120.886 16.9409 120.37 16.9409C120.007 16.9409 119.686 16.8767 119.407 16.7484C119.128 16.62 118.909 16.4414 118.75 16.2126C118.594 15.9811 118.516 15.7313 118.516 15.4635H119.29C119.304 15.723 119.407 15.9294 119.6 16.0829C119.795 16.2336 120.052 16.3089 120.37 16.3089C120.663 16.3089 120.897 16.2503 121.073 16.1331C121.252 16.0131 121.341 15.8541 121.341 15.656ZM126.949 14.6432C126.949 15.3323 126.792 15.8876 126.476 16.3089C126.161 16.7302 125.734 16.9409 125.196 16.9409C124.646 16.9409 124.213 16.7665 123.898 16.4177V18.5982H123.124V12.3287H123.831L123.869 12.8309C124.184 12.4403 124.622 12.245 125.183 12.245C125.727 12.245 126.157 12.4501 126.472 12.8602C126.79 13.2704 126.949 13.841 126.949 14.572V14.6432ZM126.175 14.5553C126.175 14.0447 126.066 13.6415 125.849 13.3457C125.631 13.05 125.332 12.9021 124.953 12.9021C124.484 12.9021 124.133 13.11 123.898 13.5257V15.6895C124.13 16.1024 124.484 16.3089 124.961 16.3089C125.332 16.3089 125.627 16.1624 125.844 15.8695C126.065 15.5737 126.175 15.1356 126.175 14.5553ZM127.732 14.5511C127.732 14.1075 127.818 13.7085 127.991 13.3541C128.167 12.9998 128.41 12.7263 128.72 12.5338C129.032 12.3413 129.388 12.245 129.787 12.245C130.403 12.245 130.902 12.4585 131.281 12.8854C131.663 13.3123 131.854 13.8801 131.854 14.5888V14.6432C131.854 15.084 131.769 15.4802 131.599 15.8318C131.432 16.1806 131.19 16.4526 130.875 16.6479C130.563 16.8432 130.203 16.9409 129.795 16.9409C129.181 16.9409 128.683 16.7274 128.301 16.3005C127.922 15.8736 127.732 15.3086 127.732 14.6055V14.5511ZM128.51 14.6432C128.51 15.1454 128.626 15.5486 128.858 15.8527C129.092 16.1568 129.405 16.3089 129.795 16.3089C130.189 16.3089 130.501 16.1554 130.733 15.8485C130.964 15.5388 131.08 15.1063 131.08 14.5511C131.08 14.0544 130.962 13.6527 130.724 13.3457C130.49 13.036 130.177 12.8812 129.787 12.8812C129.405 12.8812 129.096 13.0332 128.862 13.3374C128.628 13.6415 128.51 14.0768 128.51 14.6432ZM133.667 16.8572H132.892V12.3287H133.667V16.8572ZM132.83 11.1275C132.83 11.002 132.867 10.896 132.943 10.8095C133.021 10.723 133.135 10.6797 133.286 10.6797C133.436 10.6797 133.551 10.723 133.629 10.8095C133.707 10.896 133.746 11.002 133.746 11.1275C133.746 11.2531 133.707 11.3577 133.629 11.4414C133.551 11.5251 133.436 11.567 133.286 11.567C133.135 11.567 133.021 11.5251 132.943 11.4414C132.867 11.3577 132.83 11.2531 132.83 11.1275ZM135.642 12.3287L135.667 12.8979C136.013 12.4626 136.465 12.245 137.023 12.245C137.98 12.245 138.463 12.7849 138.471 13.8647V16.8572H137.697V13.8605C137.694 13.5341 137.619 13.2927 137.471 13.1365C137.326 12.9802 137.099 12.9021 136.789 12.9021C136.538 12.9021 136.317 12.9691 136.128 13.103C135.938 13.2369 135.79 13.4127 135.684 13.6303V16.8572H134.91V12.3287H135.642ZM140.689 11.2322V12.3287H141.535V12.9272H140.689V15.7355C140.689 15.9169 140.727 16.0536 140.802 16.1457C140.878 16.235 141.006 16.2796 141.188 16.2796C141.277 16.2796 141.4 16.2629 141.556 16.2294V16.8572C141.352 16.913 141.154 16.9409 140.962 16.9409C140.616 16.9409 140.355 16.8363 140.179 16.627C140.003 16.4177 139.915 16.1206 139.915 15.7355V12.9272H139.091V12.3287H139.915V11.2322H140.689Z" fill="white"/>
</svg>
